<mxfile host="Electron" modified="2023-09-26T17:50:32.705Z" agent="Mozilla/5.0 (Windows NT 10.0; Win64; x64) AppleWebKit/537.36 (KHTML, like Gecko) draw.io/21.8.2 Chrome/114.0.5735.289 Electron/25.8.1 Safari/537.36" etag="Pj_pmldS5kaEFRsEsCQV" version="21.8.2" type="device">
  <diagram name="PÃ¡gina-1" id="uIaeZG-4yjtN7OTXWmK6">
    <mxGraphModel dx="1418" dy="820" grid="1" gridSize="10" guides="1" tooltips="1" connect="1" arrows="1" fold="1" page="1" pageScale="1" pageWidth="827" pageHeight="1169" math="0" shadow="0">
      <root>
        <mxCell id="0" />
        <mxCell id="1" parent="0" />
        <mxCell id="05Dk0mu0GuOXdBUdAoRi-3" value="inicio" style="ellipse;whiteSpace=wrap;html=1;fillColor=#0050ef;fontColor=#ffffff;strokeColor=#001DBC;" parent="1" vertex="1">
          <mxGeometry x="180" y="40" width="120" height="80" as="geometry" />
        </mxCell>
        <mxCell id="05Dk0mu0GuOXdBUdAoRi-4" value="fin" style="ellipse;whiteSpace=wrap;html=1;fillColor=#0050ef;fontColor=#ffffff;strokeColor=#001DBC;" parent="1" vertex="1">
          <mxGeometry x="190" y="730" width="120" height="80" as="geometry" />
        </mxCell>
        <mxCell id="05Dk0mu0GuOXdBUdAoRi-12" value="" style="edgeStyle=orthogonalEdgeStyle;rounded=0;orthogonalLoop=1;jettySize=auto;html=1;" parent="1" source="05Dk0mu0GuOXdBUdAoRi-5" target="05Dk0mu0GuOXdBUdAoRi-3" edge="1">
          <mxGeometry relative="1" as="geometry" />
        </mxCell>
        <mxCell id="05Dk0mu0GuOXdBUdAoRi-14" value="" style="edgeStyle=orthogonalEdgeStyle;rounded=0;orthogonalLoop=1;jettySize=auto;html=1;" parent="1" source="05Dk0mu0GuOXdBUdAoRi-5" target="05Dk0mu0GuOXdBUdAoRi-13" edge="1">
          <mxGeometry relative="1" as="geometry" />
        </mxCell>
        <mxCell id="05Dk0mu0GuOXdBUdAoRi-5" value="ingresar numero 1" style="rhombus;whiteSpace=wrap;html=1;fillColor=#60a917;fontColor=#ffffff;strokeColor=#2D7600;" parent="1" vertex="1">
          <mxGeometry x="70" y="50" width="80" height="80" as="geometry" />
        </mxCell>
        <mxCell id="05Dk0mu0GuOXdBUdAoRi-11" value="" style="edgeStyle=orthogonalEdgeStyle;rounded=0;orthogonalLoop=1;jettySize=auto;html=1;" parent="1" source="05Dk0mu0GuOXdBUdAoRi-10" target="05Dk0mu0GuOXdBUdAoRi-3" edge="1">
          <mxGeometry relative="1" as="geometry" />
        </mxCell>
        <mxCell id="05Dk0mu0GuOXdBUdAoRi-16" value="" style="edgeStyle=orthogonalEdgeStyle;rounded=0;orthogonalLoop=1;jettySize=auto;html=1;" parent="1" source="05Dk0mu0GuOXdBUdAoRi-10" target="05Dk0mu0GuOXdBUdAoRi-15" edge="1">
          <mxGeometry relative="1" as="geometry" />
        </mxCell>
        <mxCell id="05Dk0mu0GuOXdBUdAoRi-10" value="ingresar numero 2" style="rhombus;whiteSpace=wrap;html=1;fillColor=#60a917;fontColor=#ffffff;strokeColor=#2D7600;" parent="1" vertex="1">
          <mxGeometry x="350" y="50" width="80" height="80" as="geometry" />
        </mxCell>
        <mxCell id="05Dk0mu0GuOXdBUdAoRi-19" value="" style="edgeStyle=orthogonalEdgeStyle;rounded=0;orthogonalLoop=1;jettySize=auto;html=1;" parent="1" source="05Dk0mu0GuOXdBUdAoRi-13" target="05Dk0mu0GuOXdBUdAoRi-17" edge="1">
          <mxGeometry relative="1" as="geometry" />
        </mxCell>
        <mxCell id="05Dk0mu0GuOXdBUdAoRi-31" style="edgeStyle=orthogonalEdgeStyle;rounded=0;orthogonalLoop=1;jettySize=auto;html=1;exitX=0.5;exitY=1;exitDx=0;exitDy=0;entryX=0;entryY=0.75;entryDx=0;entryDy=0;" parent="1" source="05Dk0mu0GuOXdBUdAoRi-13" target="05Dk0mu0GuOXdBUdAoRi-28" edge="1">
          <mxGeometry relative="1" as="geometry" />
        </mxCell>
        <mxCell id="05Dk0mu0GuOXdBUdAoRi-34" style="edgeStyle=orthogonalEdgeStyle;rounded=0;orthogonalLoop=1;jettySize=auto;html=1;exitX=0.25;exitY=1;exitDx=0;exitDy=0;entryX=0;entryY=0.75;entryDx=0;entryDy=0;" parent="1" source="05Dk0mu0GuOXdBUdAoRi-13" target="05Dk0mu0GuOXdBUdAoRi-29" edge="1">
          <mxGeometry relative="1" as="geometry" />
        </mxCell>
        <mxCell id="05Dk0mu0GuOXdBUdAoRi-36" style="edgeStyle=orthogonalEdgeStyle;rounded=0;orthogonalLoop=1;jettySize=auto;html=1;exitX=0;exitY=0.5;exitDx=0;exitDy=0;entryX=0;entryY=0.5;entryDx=0;entryDy=0;" parent="1" source="05Dk0mu0GuOXdBUdAoRi-13" target="05Dk0mu0GuOXdBUdAoRi-30" edge="1">
          <mxGeometry relative="1" as="geometry" />
        </mxCell>
        <mxCell id="05Dk0mu0GuOXdBUdAoRi-13" value="numero 1" style="whiteSpace=wrap;html=1;fillColor=#008a00;fontColor=#ffffff;strokeColor=#005700;" parent="1" vertex="1">
          <mxGeometry x="50" y="220" width="120" height="60" as="geometry" />
        </mxCell>
        <mxCell id="05Dk0mu0GuOXdBUdAoRi-18" value="" style="edgeStyle=orthogonalEdgeStyle;rounded=0;orthogonalLoop=1;jettySize=auto;html=1;" parent="1" source="05Dk0mu0GuOXdBUdAoRi-15" target="05Dk0mu0GuOXdBUdAoRi-17" edge="1">
          <mxGeometry relative="1" as="geometry" />
        </mxCell>
        <mxCell id="05Dk0mu0GuOXdBUdAoRi-32" style="edgeStyle=orthogonalEdgeStyle;rounded=0;orthogonalLoop=1;jettySize=auto;html=1;exitX=0.5;exitY=1;exitDx=0;exitDy=0;entryX=1;entryY=0.75;entryDx=0;entryDy=0;" parent="1" source="05Dk0mu0GuOXdBUdAoRi-15" target="05Dk0mu0GuOXdBUdAoRi-28" edge="1">
          <mxGeometry relative="1" as="geometry" />
        </mxCell>
        <mxCell id="05Dk0mu0GuOXdBUdAoRi-35" style="edgeStyle=orthogonalEdgeStyle;rounded=0;orthogonalLoop=1;jettySize=auto;html=1;exitX=0.75;exitY=1;exitDx=0;exitDy=0;entryX=1;entryY=0.75;entryDx=0;entryDy=0;" parent="1" source="05Dk0mu0GuOXdBUdAoRi-15" target="05Dk0mu0GuOXdBUdAoRi-29" edge="1">
          <mxGeometry relative="1" as="geometry" />
        </mxCell>
        <mxCell id="05Dk0mu0GuOXdBUdAoRi-37" style="edgeStyle=orthogonalEdgeStyle;rounded=0;orthogonalLoop=1;jettySize=auto;html=1;exitX=1;exitY=0.5;exitDx=0;exitDy=0;entryX=1;entryY=0.5;entryDx=0;entryDy=0;" parent="1" source="05Dk0mu0GuOXdBUdAoRi-15" target="05Dk0mu0GuOXdBUdAoRi-30" edge="1">
          <mxGeometry relative="1" as="geometry" />
        </mxCell>
        <mxCell id="05Dk0mu0GuOXdBUdAoRi-15" value="numero 2" style="whiteSpace=wrap;html=1;fillColor=#008a00;fontColor=#ffffff;strokeColor=#005700;" parent="1" vertex="1">
          <mxGeometry x="330" y="220" width="120" height="60" as="geometry" />
        </mxCell>
        <mxCell id="05Dk0mu0GuOXdBUdAoRi-17" value="suma= numero 1 + numero 2" style="whiteSpace=wrap;html=1;fillColor=#a20025;fontColor=#ffffff;strokeColor=#6F0000;" parent="1" vertex="1">
          <mxGeometry x="190" y="220" width="120" height="60" as="geometry" />
        </mxCell>
        <mxCell id="05Dk0mu0GuOXdBUdAoRi-28" value="multiplicacion= numero 1*numero 2" style="rounded=0;whiteSpace=wrap;html=1;fillColor=#d80073;fontColor=#ffffff;strokeColor=#A50040;" parent="1" vertex="1">
          <mxGeometry x="190" y="320" width="120" height="60" as="geometry" />
        </mxCell>
        <mxCell id="05Dk0mu0GuOXdBUdAoRi-29" value="resta= numero1 - numero 2&lt;br&gt;" style="rounded=0;whiteSpace=wrap;html=1;fillColor=#1ba1e2;fontColor=#ffffff;strokeColor=#006EAF;" parent="1" vertex="1">
          <mxGeometry x="200" y="420" width="120" height="60" as="geometry" />
        </mxCell>
        <mxCell id="05Dk0mu0GuOXdBUdAoRi-38" value="" style="edgeStyle=orthogonalEdgeStyle;rounded=0;orthogonalLoop=1;jettySize=auto;html=1;" parent="1" source="05Dk0mu0GuOXdBUdAoRi-30" target="05Dk0mu0GuOXdBUdAoRi-4" edge="1">
          <mxGeometry relative="1" as="geometry" />
        </mxCell>
        <mxCell id="05Dk0mu0GuOXdBUdAoRi-30" value="division= numero 1 / numero 2" style="rounded=1;whiteSpace=wrap;html=1;fillColor=#f0a30a;fontColor=#000000;strokeColor=#BD7000;" parent="1" vertex="1">
          <mxGeometry x="190" y="525" width="120" height="60" as="geometry" />
        </mxCell>
        <mxCell id="05Dk0mu0GuOXdBUdAoRi-39" value="resultado&amp;nbsp;" style="rounded=0;whiteSpace=wrap;html=1;fillColor=#e3c800;strokeColor=#B09500;fontColor=#000000;" parent="1" vertex="1">
          <mxGeometry x="190" y="640" width="120" height="60" as="geometry" />
        </mxCell>
        <mxCell id="N7Em69JNBFi7zUXwMUkQ-13" value="" style="edgeStyle=orthogonalEdgeStyle;rounded=0;orthogonalLoop=1;jettySize=auto;html=1;" edge="1" parent="1" source="N7Em69JNBFi7zUXwMUkQ-1" target="N7Em69JNBFi7zUXwMUkQ-3">
          <mxGeometry relative="1" as="geometry" />
        </mxCell>
        <mxCell id="N7Em69JNBFi7zUXwMUkQ-1" value="inicio&amp;nbsp;" style="ellipse;whiteSpace=wrap;html=1;fillColor=#0050ef;fontColor=#ffffff;strokeColor=#001DBC;" vertex="1" parent="1">
          <mxGeometry x="610" width="120" height="80" as="geometry" />
        </mxCell>
        <mxCell id="N7Em69JNBFi7zUXwMUkQ-5" style="edgeStyle=orthogonalEdgeStyle;rounded=0;orthogonalLoop=1;jettySize=auto;html=1;exitX=0.5;exitY=1;exitDx=0;exitDy=0;" edge="1" parent="1" source="N7Em69JNBFi7zUXwMUkQ-2">
          <mxGeometry relative="1" as="geometry">
            <mxPoint x="670" y="150" as="targetPoint" />
          </mxGeometry>
        </mxCell>
        <mxCell id="N7Em69JNBFi7zUXwMUkQ-14" value="" style="edgeStyle=orthogonalEdgeStyle;rounded=0;orthogonalLoop=1;jettySize=auto;html=1;" edge="1" parent="1" source="N7Em69JNBFi7zUXwMUkQ-2" target="N7Em69JNBFi7zUXwMUkQ-4">
          <mxGeometry relative="1" as="geometry" />
        </mxCell>
        <mxCell id="N7Em69JNBFi7zUXwMUkQ-2" value="escribir &quot;dame x:&quot;" style="shape=parallelogram;perimeter=parallelogramPerimeter;whiteSpace=wrap;html=1;fixedSize=1;fillColor=#a20025;fontColor=#ffffff;strokeColor=#6F0000;" vertex="1" parent="1">
          <mxGeometry x="610" y="100" width="120" height="60" as="geometry" />
        </mxCell>
        <mxCell id="N7Em69JNBFi7zUXwMUkQ-3" value="leer x" style="shape=parallelogram;perimeter=parallelogramPerimeter;whiteSpace=wrap;html=1;fixedSize=1;fillColor=#a20025;fontColor=#ffffff;strokeColor=#6F0000;" vertex="1" parent="1">
          <mxGeometry x="600" y="180" width="120" height="60" as="geometry" />
        </mxCell>
        <mxCell id="N7Em69JNBFi7zUXwMUkQ-15" value="" style="edgeStyle=orthogonalEdgeStyle;rounded=0;orthogonalLoop=1;jettySize=auto;html=1;" edge="1" parent="1" source="N7Em69JNBFi7zUXwMUkQ-4" target="N7Em69JNBFi7zUXwMUkQ-6">
          <mxGeometry relative="1" as="geometry" />
        </mxCell>
        <mxCell id="N7Em69JNBFi7zUXwMUkQ-4" value="escribir &quot;dame y&quot;" style="shape=parallelogram;perimeter=parallelogramPerimeter;whiteSpace=wrap;html=1;fixedSize=1;fillColor=#a20025;fontColor=#ffffff;strokeColor=#6F0000;" vertex="1" parent="1">
          <mxGeometry x="590" y="270" width="120" height="60" as="geometry" />
        </mxCell>
        <mxCell id="N7Em69JNBFi7zUXwMUkQ-16" value="" style="edgeStyle=orthogonalEdgeStyle;rounded=0;orthogonalLoop=1;jettySize=auto;html=1;" edge="1" parent="1" source="N7Em69JNBFi7zUXwMUkQ-6" target="N7Em69JNBFi7zUXwMUkQ-7">
          <mxGeometry relative="1" as="geometry" />
        </mxCell>
        <mxCell id="N7Em69JNBFi7zUXwMUkQ-6" value="leer y" style="shape=parallelogram;perimeter=parallelogramPerimeter;whiteSpace=wrap;html=1;fixedSize=1;fillColor=#a20025;fontColor=#ffffff;strokeColor=#6F0000;" vertex="1" parent="1">
          <mxGeometry x="580" y="360" width="120" height="60" as="geometry" />
        </mxCell>
        <mxCell id="N7Em69JNBFi7zUXwMUkQ-17" value="" style="edgeStyle=orthogonalEdgeStyle;rounded=0;orthogonalLoop=1;jettySize=auto;html=1;" edge="1" parent="1" source="N7Em69JNBFi7zUXwMUkQ-7" target="N7Em69JNBFi7zUXwMUkQ-9">
          <mxGeometry relative="1" as="geometry" />
        </mxCell>
        <mxCell id="N7Em69JNBFi7zUXwMUkQ-7" value="suma x+y" style="rounded=0;whiteSpace=wrap;html=1;fillColor=#a20025;fontColor=#ffffff;strokeColor=#6F0000;" vertex="1" parent="1">
          <mxGeometry x="580" y="465" width="120" height="60" as="geometry" />
        </mxCell>
        <mxCell id="N7Em69JNBFi7zUXwMUkQ-18" value="" style="edgeStyle=orthogonalEdgeStyle;rounded=0;orthogonalLoop=1;jettySize=auto;html=1;" edge="1" parent="1" source="N7Em69JNBFi7zUXwMUkQ-8" target="N7Em69JNBFi7zUXwMUkQ-10">
          <mxGeometry relative="1" as="geometry" />
        </mxCell>
        <mxCell id="N7Em69JNBFi7zUXwMUkQ-8" value="resta x-y" style="rounded=0;whiteSpace=wrap;html=1;fillColor=#a20025;fontColor=#ffffff;strokeColor=#6F0000;" vertex="1" parent="1">
          <mxGeometry x="600" y="555" width="120" height="60" as="geometry" />
        </mxCell>
        <mxCell id="N7Em69JNBFi7zUXwMUkQ-9" value="multiplica x*y" style="rounded=0;whiteSpace=wrap;html=1;fillColor=#a20025;fontColor=#ffffff;strokeColor=#6F0000;" vertex="1" parent="1">
          <mxGeometry x="580" y="640" width="120" height="60" as="geometry" />
        </mxCell>
        <mxCell id="N7Em69JNBFi7zUXwMUkQ-19" value="" style="edgeStyle=orthogonalEdgeStyle;rounded=0;orthogonalLoop=1;jettySize=auto;html=1;" edge="1" parent="1" source="N7Em69JNBFi7zUXwMUkQ-10" target="N7Em69JNBFi7zUXwMUkQ-11">
          <mxGeometry relative="1" as="geometry" />
        </mxCell>
        <mxCell id="N7Em69JNBFi7zUXwMUkQ-10" value="divide x/y" style="rounded=0;whiteSpace=wrap;html=1;fillColor=#a20025;fontColor=#ffffff;strokeColor=#6F0000;" vertex="1" parent="1">
          <mxGeometry x="590" y="720" width="120" height="60" as="geometry" />
        </mxCell>
        <mxCell id="N7Em69JNBFi7zUXwMUkQ-11" value="mostrar resultado&amp;nbsp;" style="rounded=0;whiteSpace=wrap;html=1;" vertex="1" parent="1">
          <mxGeometry x="470" y="830" width="300" height="60" as="geometry" />
        </mxCell>
        <mxCell id="N7Em69JNBFi7zUXwMUkQ-20" value="" style="edgeStyle=orthogonalEdgeStyle;rounded=0;orthogonalLoop=1;jettySize=auto;html=1;" edge="1" parent="1" source="N7Em69JNBFi7zUXwMUkQ-12" target="N7Em69JNBFi7zUXwMUkQ-11">
          <mxGeometry relative="1" as="geometry" />
        </mxCell>
        <mxCell id="N7Em69JNBFi7zUXwMUkQ-12" value="fin" style="ellipse;whiteSpace=wrap;html=1;fillColor=#a20025;fontColor=#ffffff;strokeColor=#6F0000;" vertex="1" parent="1">
          <mxGeometry x="590" y="930" width="120" height="90" as="geometry" />
        </mxCell>
      </root>
    </mxGraphModel>
  </diagram>
</mxfile>
